<mxfile host="app.diagrams.net" modified="2021-07-02T12:41:09.972Z" agent="5.0 (Macintosh; Intel Mac OS X 10_15_7) AppleWebKit/537.36 (KHTML, like Gecko) Chrome/91.0.4472.114 Safari/537.36" etag="LBzk_FbMQ2h1IiGr2Ayd" version="14.8.3" type="github">
  <diagram id="0" name="Page-1">
    <mxGraphModel dx="946" dy="469" grid="1" gridSize="10" guides="1" tooltips="1" connect="1" arrows="1" fold="1" page="1" pageScale="1" pageWidth="826" pageHeight="1169" background="#ffffff" math="0" shadow="0">
      <root>
        <mxCell id="0" />
        <mxCell id="1" parent="0" />
        <mxCell id="a85Q3qr-rty99L3iWpNl-144" value="" style="rounded=1;whiteSpace=wrap;html=1;" parent="1" vertex="1">
          <mxGeometry x="10" y="455" width="890" height="305" as="geometry" />
        </mxCell>
        <mxCell id="a85Q3qr-rty99L3iWpNl-143" value="" style="rounded=1;whiteSpace=wrap;html=1;" parent="1" vertex="1">
          <mxGeometry x="10" y="20" width="890" height="320" as="geometry" />
        </mxCell>
        <mxCell id="37" value="Hotfix Commit" style="text;html=1;strokeColor=none;fillColor=none;align=center;verticalAlign=middle;whiteSpace=wrap;overflow=hidden;labelBorderColor=none;" parent="1" vertex="1">
          <mxGeometry x="320" y="670" width="50" height="30" as="geometry" />
        </mxCell>
        <mxCell id="38" value="" style="edgeStyle=orthogonalEdgeStyle;rounded=0;html=1;jettySize=auto;orthogonalLoop=1;plain-blue;endArrow=none;endFill=0;strokeWidth=4;strokeColor=#000000;labelBorderColor=none;" parent="1" source="39" target="40" edge="1">
          <mxGeometry x="240" y="170" as="geometry" />
        </mxCell>
        <mxCell id="47" style="edgeStyle=orthogonalEdgeStyle;curved=1;rounded=0;html=1;exitX=1;exitY=0.5;exitPerimeter=0;entryX=0;entryY=0.5;entryPerimeter=0;endArrow=none;endFill=0;jettySize=auto;orthogonalLoop=1;strokeWidth=4;fontSize=15;labelBorderColor=none;" parent="1" source="39" target="44" edge="1">
          <mxGeometry relative="1" as="geometry" />
        </mxCell>
        <mxCell id="39" value="" style="verticalLabelPosition=bottom;verticalAlign=top;html=1;strokeWidth=4;shape=mxgraph.flowchart.on-page_reference;plain-blue;gradientColor=none;fillColor=#B5E3Fe;strokeColor=#000000;labelBorderColor=none;" parent="1" vertex="1">
          <mxGeometry x="210" y="155" width="30" height="30" as="geometry" />
        </mxCell>
        <mxCell id="40" value="" style="verticalLabelPosition=bottom;verticalAlign=top;html=1;strokeWidth=4;shape=mxgraph.flowchart.on-page_reference;plain-blue;gradientColor=none;strokeColor=#000000;labelBorderColor=none;" parent="1" vertex="1">
          <mxGeometry x="500" y="155" width="30" height="30" as="geometry" />
        </mxCell>
        <mxCell id="41" value="" style="edgeStyle=orthogonalEdgeStyle;rounded=0;html=1;jettySize=auto;orthogonalLoop=1;strokeWidth=4;endArrow=none;endFill=0;labelBorderColor=none;" parent="1" target="39" edge="1">
          <mxGeometry x="140" y="170" as="geometry">
            <mxPoint x="90" y="170" as="sourcePoint" />
          </mxGeometry>
        </mxCell>
        <mxCell id="42" value="Dev/Stage" style="text;html=1;strokeColor=none;fillColor=none;align=center;verticalAlign=middle;whiteSpace=wrap;overflow=hidden;fontSize=14;fontStyle=1;labelBorderColor=none;" parent="1" vertex="1">
          <mxGeometry x="20" y="160" width="70" height="20" as="geometry" />
        </mxCell>
        <mxCell id="50" style="edgeStyle=orthogonalEdgeStyle;curved=1;rounded=0;html=1;exitX=1;exitY=0.5;exitPerimeter=0;entryX=0;entryY=0.5;entryPerimeter=0;endArrow=none;endFill=0;jettySize=auto;orthogonalLoop=1;strokeWidth=4;fontSize=15;labelBorderColor=none;" parent="1" source="44" target="45" edge="1">
          <mxGeometry relative="1" as="geometry" />
        </mxCell>
        <mxCell id="44" value="" style="verticalLabelPosition=bottom;verticalAlign=top;html=1;strokeWidth=4;shape=mxgraph.flowchart.on-page_reference;plain-purple;gradientColor=none;strokeColor=#000000;labelBorderColor=none;" parent="1" vertex="1">
          <mxGeometry x="283" y="235" width="30" height="30" as="geometry" />
        </mxCell>
        <mxCell id="51" style="edgeStyle=orthogonalEdgeStyle;curved=1;rounded=0;html=1;exitX=1;exitY=0.5;exitPerimeter=0;entryX=0;entryY=0.5;entryPerimeter=0;endArrow=none;endFill=0;jettySize=auto;orthogonalLoop=1;strokeWidth=4;fontSize=15;labelBorderColor=none;" parent="1" source="45" target="46" edge="1">
          <mxGeometry relative="1" as="geometry" />
        </mxCell>
        <mxCell id="45" value="" style="verticalLabelPosition=bottom;verticalAlign=top;html=1;strokeWidth=4;shape=mxgraph.flowchart.on-page_reference;plain-purple;gradientColor=none;strokeColor=#000000;labelBorderColor=none;" parent="1" vertex="1">
          <mxGeometry x="355" y="235" width="30" height="30" as="geometry" />
        </mxCell>
        <mxCell id="52" style="edgeStyle=orthogonalEdgeStyle;curved=1;rounded=0;html=1;exitX=1;exitY=0.5;exitPerimeter=0;entryX=0;entryY=0.5;entryPerimeter=0;endArrow=none;endFill=0;jettySize=auto;orthogonalLoop=1;strokeWidth=4;fontSize=15;labelBorderColor=none;" parent="1" source="46" target="40" edge="1">
          <mxGeometry relative="1" as="geometry" />
        </mxCell>
        <mxCell id="46" value="" style="verticalLabelPosition=bottom;verticalAlign=top;html=1;strokeWidth=4;shape=mxgraph.flowchart.on-page_reference;plain-purple;gradientColor=none;strokeColor=#000000;labelBorderColor=none;" parent="1" vertex="1">
          <mxGeometry x="428" y="235" width="30" height="30" as="geometry" />
        </mxCell>
        <mxCell id="53" value="Feature/D8CORE-XXXX/Desc&lt;br&gt;" style="text;html=1;strokeColor=none;fillColor=none;align=left;verticalAlign=middle;whiteSpace=wrap;overflow=hidden;fontSize=14;fontStyle=1;labelBorderColor=none;" parent="1" vertex="1">
          <mxGeometry x="30" y="240" width="240" height="20" as="geometry" />
        </mxCell>
        <mxCell id="96" value="clean" style="text;html=1;strokeColor=none;fillColor=none;align=center;verticalAlign=middle;whiteSpace=wrap;overflow=hidden;fontSize=14;fontStyle=1" parent="1" vertex="1">
          <mxGeometry x="31" y="515" width="50" height="20" as="geometry" />
        </mxCell>
        <mxCell id="125" style="edgeStyle=orthogonalEdgeStyle;curved=1;rounded=0;html=1;exitX=1;exitY=0.5;exitPerimeter=0;entryX=0;entryY=0.5;entryPerimeter=0;endArrow=none;endFill=0;jettySize=auto;orthogonalLoop=1;strokeWidth=4;fontSize=15;" parent="1" edge="1">
          <mxGeometry relative="1" as="geometry">
            <mxPoint x="530" y="580" as="targetPoint" />
            <mxPoint x="326" y="580" as="sourcePoint" />
          </mxGeometry>
        </mxCell>
        <mxCell id="98" value="" style="verticalLabelPosition=bottom;verticalAlign=top;html=1;strokeWidth=4;shape=mxgraph.flowchart.on-page_reference;plain-purple;gradientColor=none;strokeColor=#000000;" parent="1" vertex="1">
          <mxGeometry x="296" y="565" width="30" height="30" as="geometry" />
        </mxCell>
        <mxCell id="115" style="edgeStyle=orthogonalEdgeStyle;curved=1;rounded=0;html=1;exitX=1;exitY=0.5;entryX=0;entryY=0.5;entryPerimeter=0;endArrow=none;endFill=0;jettySize=auto;orthogonalLoop=1;strokeWidth=4;fontSize=15;" parent="1" edge="1">
          <mxGeometry relative="1" as="geometry">
            <mxPoint x="94" y="580" as="sourcePoint" />
            <mxPoint x="296" y="580" as="targetPoint" />
          </mxGeometry>
        </mxCell>
        <mxCell id="118" style="edgeStyle=orthogonalEdgeStyle;curved=1;rounded=0;html=1;exitX=1;exitY=0.5;exitPerimeter=0;endArrow=none;endFill=0;jettySize=auto;orthogonalLoop=1;strokeWidth=4;fontSize=15;" parent="1" source="113" edge="1">
          <mxGeometry relative="1" as="geometry">
            <mxPoint x="550" y="580" as="targetPoint" />
            <Array as="points">
              <mxPoint x="490" y="525" />
              <mxPoint x="490" y="580" />
              <mxPoint x="570" y="580" />
            </Array>
          </mxGeometry>
        </mxCell>
        <mxCell id="113" value="" style="verticalLabelPosition=bottom;verticalAlign=top;html=1;strokeWidth=4;shape=mxgraph.flowchart.on-page_reference;plain-blue;gradientColor=none;strokeColor=#000000;" parent="1" vertex="1">
          <mxGeometry x="410" y="510" width="30" height="30" as="geometry" />
        </mxCell>
        <mxCell id="117" value="" style="verticalLabelPosition=bottom;verticalAlign=top;html=1;strokeWidth=4;shape=mxgraph.flowchart.on-page_reference;plain-purple;gradientColor=none;strokeColor=#000000;" parent="1" vertex="1">
          <mxGeometry x="530" y="565" width="30" height="30" as="geometry" />
        </mxCell>
        <mxCell id="121" style="edgeStyle=orthogonalEdgeStyle;curved=1;rounded=0;html=1;exitX=1;exitY=0.5;exitPerimeter=0;entryX=0;entryY=0.5;entryPerimeter=0;endArrow=none;endFill=0;jettySize=auto;orthogonalLoop=1;strokeWidth=4;fontSize=15;" parent="1" source="119" edge="1">
          <mxGeometry relative="1" as="geometry">
            <mxPoint x="296" y="580" as="targetPoint" />
            <Array as="points">
              <mxPoint x="260" y="525" />
              <mxPoint x="260" y="580" />
            </Array>
          </mxGeometry>
        </mxCell>
        <mxCell id="126" style="edgeStyle=orthogonalEdgeStyle;curved=1;rounded=0;html=1;exitX=1;exitY=0.5;exitPerimeter=0;endArrow=none;endFill=0;jettySize=auto;orthogonalLoop=1;strokeWidth=4;fontSize=15;" parent="1" source="119" edge="1">
          <mxGeometry relative="1" as="geometry">
            <mxPoint x="410" y="525" as="targetPoint" />
          </mxGeometry>
        </mxCell>
        <mxCell id="119" value="" style="verticalLabelPosition=bottom;verticalAlign=top;html=1;strokeWidth=4;shape=mxgraph.flowchart.on-page_reference;plain-blue;gradientColor=none;strokeColor=#000000;" parent="1" vertex="1">
          <mxGeometry x="203" y="510" width="30" height="30" as="geometry" />
        </mxCell>
        <mxCell id="120" value="" style="edgeStyle=orthogonalEdgeStyle;rounded=0;html=1;jettySize=auto;orthogonalLoop=1;plain-blue;endArrow=none;endFill=0;strokeWidth=4;strokeColor=#000000;" parent="1" target="119" edge="1">
          <mxGeometry x="241" y="525" as="geometry">
            <mxPoint x="95" y="525" as="sourcePoint" />
            <mxPoint x="501" y="525.1379310344828" as="targetPoint" />
          </mxGeometry>
        </mxCell>
        <mxCell id="122" value="&amp;nbsp;Tag v1.2.4" style="text;html=1;strokeColor=none;fillColor=none;align=center;verticalAlign=top;whiteSpace=wrap;overflow=hidden;fontSize=14;fontStyle=1" parent="1" vertex="1">
          <mxGeometry x="403" y="470" width="104" height="30" as="geometry" />
        </mxCell>
        <mxCell id="123" style="edgeStyle=orthogonalEdgeStyle;curved=1;rounded=0;html=1;exitX=0.5;exitY=1;entryX=0.5;entryY=1;endArrow=none;endFill=0;jettySize=auto;orthogonalLoop=1;strokeWidth=4;fontSize=15;" parent="1" source="122" target="122" edge="1">
          <mxGeometry relative="1" as="geometry" />
        </mxCell>
        <mxCell id="a85Q3qr-rty99L3iWpNl-132" value="&lt;span style=&quot;font-size: 14px ; font-weight: 700 ; text-align: left&quot;&gt;Feature/D8CORE-XXXX/Desc&lt;/span&gt;" style="text;html=1;strokeColor=none;fillColor=none;align=center;verticalAlign=middle;whiteSpace=wrap;rounded=0;" parent="1" vertex="1">
          <mxGeometry x="50" y="595" width="40" height="20" as="geometry" />
        </mxCell>
        <mxCell id="a85Q3qr-rty99L3iWpNl-139" style="edgeStyle=orthogonalEdgeStyle;curved=1;rounded=0;html=1;exitX=1;exitY=0.5;exitPerimeter=0;entryX=0;entryY=0.5;entryPerimeter=0;endArrow=none;endFill=0;jettySize=auto;orthogonalLoop=1;strokeWidth=4;fontSize=15;entryDx=0;entryDy=0;" parent="1" target="113" edge="1">
          <mxGeometry relative="1" as="geometry">
            <mxPoint x="330" y="580" as="sourcePoint" />
            <mxPoint x="372" y="500" as="targetPoint" />
          </mxGeometry>
        </mxCell>
        <mxCell id="a85Q3qr-rty99L3iWpNl-140" value="&lt;div style=&quot;text-align: left&quot;&gt;&lt;ol&gt;&lt;li&gt;&lt;span&gt;&amp;nbsp;We create feature branch from dev.&lt;/span&gt;&lt;/li&gt;&lt;li&gt;&lt;span&gt;After that we create PR from feature branch to dev&lt;br&gt;&lt;/span&gt;&lt;/li&gt;&lt;li&gt;&lt;span&gt;Then we merge dev to stage.&lt;/span&gt;&lt;/li&gt;&lt;li&gt;&lt;span&gt;Finally stage brach will get deploy in stage env.&lt;/span&gt;&lt;/li&gt;&lt;li&gt;&lt;span&gt;Dev and stage are identical branches and having no difference.&lt;/span&gt;&lt;/li&gt;&lt;li&gt;&lt;span&gt;We are not using dev environment. We are performing dev, qa and UAT on one single environment.&lt;/span&gt;&lt;/li&gt;&lt;/ol&gt;&lt;/div&gt;" style="rounded=1;whiteSpace=wrap;html=1;labelBorderColor=none;" parent="1" vertex="1">
          <mxGeometry x="590" y="120" width="280" height="185" as="geometry" />
        </mxCell>
        <mxCell id="a85Q3qr-rty99L3iWpNl-141" value="&lt;div&gt;&lt;ol&gt;&lt;li&gt;To deploy on the production, we use clean branch.&lt;/li&gt;&lt;li&gt;We create a new branch feature with respect to clean or reset the existing feature branch with respect to clean.&lt;/li&gt;&lt;li&gt;Then cherry-pick the changes and merge into feature branch.&lt;/li&gt;&lt;li&gt;Then Create a PR with respect to &lt;b&gt;clean&lt;/b&gt;.&lt;br&gt;&lt;/li&gt;&lt;li&gt;Clean branch will get deploy to Prod.&lt;/li&gt;&lt;/ol&gt;&lt;/div&gt;" style="rounded=1;whiteSpace=wrap;html=1;align=left;" parent="1" vertex="1">
          <mxGeometry x="600" y="510" width="280" height="185" as="geometry" />
        </mxCell>
        <mxCell id="a85Q3qr-rty99L3iWpNl-150" value="" style="edgeStyle=orthogonalEdgeStyle;rounded=0;html=1;jettySize=auto;orthogonalLoop=1;plain-blue;endArrow=none;endFill=0;strokeWidth=4;strokeColor=#000000;labelBorderColor=none;" parent="1" source="a85Q3qr-rty99L3iWpNl-151" target="a85Q3qr-rty99L3iWpNl-152" edge="1">
          <mxGeometry relative="1" as="geometry" />
        </mxCell>
        <mxCell id="a85Q3qr-rty99L3iWpNl-151" value="" style="verticalLabelPosition=bottom;verticalAlign=top;html=1;strokeWidth=4;shape=mxgraph.flowchart.on-page_reference;plain-blue;gradientColor=none;fillColor=#B5E3Fe;strokeColor=#000000;labelBorderColor=none;" parent="1" vertex="1">
          <mxGeometry x="220" y="715" width="30" height="30" as="geometry" />
        </mxCell>
        <mxCell id="a85Q3qr-rty99L3iWpNl-152" value="" style="verticalLabelPosition=bottom;verticalAlign=top;html=1;strokeWidth=4;shape=mxgraph.flowchart.on-page_reference;plain-red;labelBorderColor=none;" parent="1" vertex="1">
          <mxGeometry x="340" y="715" width="30" height="30" as="geometry" />
        </mxCell>
        <mxCell id="a85Q3qr-rty99L3iWpNl-153" value="" style="edgeStyle=orthogonalEdgeStyle;rounded=0;html=1;jettySize=auto;orthogonalLoop=1;strokeWidth=4;endArrow=none;endFill=0;labelBorderColor=none;" parent="1" source="a85Q3qr-rty99L3iWpNl-154" target="a85Q3qr-rty99L3iWpNl-151" edge="1">
          <mxGeometry relative="1" as="geometry" />
        </mxCell>
        <mxCell id="a85Q3qr-rty99L3iWpNl-154" value="clean" style="text;html=1;strokeColor=none;fillColor=none;align=center;verticalAlign=middle;whiteSpace=wrap;overflow=hidden;fontSize=14;labelBorderColor=none;" parent="1" vertex="1">
          <mxGeometry x="100" y="720" width="50" height="20" as="geometry" />
        </mxCell>
        <mxCell id="a85Q3qr-rty99L3iWpNl-156" value="There is a huge difference from dev/stage and clean branch. Lots of spike tickets and some non priority items are merged with respect to stage environment." style="rounded=1;whiteSpace=wrap;html=1;" parent="1" vertex="1">
          <mxGeometry x="270" y="370" width="250" height="60" as="geometry" />
        </mxCell>
        <mxCell id="NNcfmagVcU6iip3cW9RQ-126" value="&lt;b&gt;&lt;span style=&quot;color: rgb(29 , 28 , 29) ; font-family: , &amp;#34;applelogo&amp;#34; , sans-serif ; font-size: 15px ; text-align: left ; background-color: rgb(248 , 248 , 248)&quot;&gt;dev =&amp;gt;&amp;nbsp;&lt;/span&gt;&lt;span style=&quot;font-size: 14px ; text-align: left&quot;&gt;new branch&lt;/span&gt;&lt;/b&gt;" style="text;html=1;strokeColor=none;fillColor=none;align=center;verticalAlign=middle;whiteSpace=wrap;rounded=0;labelBorderColor=#000000;" vertex="1" parent="1">
          <mxGeometry x="160" y="285" width="310" height="20" as="geometry" />
        </mxCell>
        <mxCell id="NNcfmagVcU6iip3cW9RQ-127" value="&lt;span style=&quot;color: rgb(29 , 28 , 29) ; font-family: , &amp;#34;applelogo&amp;#34; , sans-serif ; font-size: 15px ; text-align: left ; background-color: rgb(248 , 248 , 248)&quot;&gt;&lt;b&gt;Clean =&amp;gt;&amp;nbsp;&lt;/b&gt;&lt;/span&gt;&lt;span style=&quot;font-size: 14px ; font-weight: 700 ; text-align: left&quot;&gt;new branch&lt;/span&gt;&lt;span style=&quot;color: rgb(29 , 28 , 29) ; font-family: , &amp;#34;applelogo&amp;#34; , sans-serif ; font-size: 15px ; text-align: left ; background-color: rgb(248 , 248 , 248)&quot;&gt;&lt;b&gt;&amp;nbsp;&amp;lt;= cherry picked commit from previous dev&lt;/b&gt;&lt;/span&gt;" style="text;html=1;strokeColor=none;fillColor=none;align=center;verticalAlign=middle;whiteSpace=wrap;rounded=0;labelBorderColor=#000000;" vertex="1" parent="1">
          <mxGeometry x="140" y="610" width="410" height="30" as="geometry" />
        </mxCell>
      </root>
    </mxGraphModel>
  </diagram>
</mxfile>
